<?xml version="1.0" encoding="UTF-8"?>
<svg width="23px" height="17px" viewBox="0 0 23 17" version="1.1" xmlns="http://www.w3.org/2000/svg" xmlns:xlink="http://www.w3.org/1999/xlink">
    <!-- Generator: Sketch 51.3 (57544) - http://www.bohemiancoding.com/sketch -->
    <title>admin</title>
    <desc>Created with Sketch.</desc>
    <defs></defs>
                    <path d="M19.2327869,3.55737705 C18.2688525,3.55737705 17.4885246,4.33770492 17.4885246,5.30163934 C17.4885246,5.4852459 17.5114754,5.66885246 17.5803279,5.85245902 L14.1147541,7.73442623 L11.7967213,3.71803279 C12.2786885,3.32786885 12.5770492,2.75409836 12.5770492,2.08852459 C12.5770492,0.940983607 11.6360656,0 10.4885246,0 C9.34098361,0 8.4,0.940983607 8.4,2.08852459 C8.4,2.75409836 8.69836066,3.32786885 9.18032787,3.71803279 L6.86229508,7.73442623 L3.39672131,5.85245902 C3.44262295,5.69180328 3.48852459,5.50819672 3.48852459,5.30163934 C3.48852459,4.33770492 2.70819672,3.55737705 1.7442623,3.55737705 C0.780327869,3.55737705 0,4.33770492 0,5.30163934 C0,6.26557377 0.780327869,7.04590164 1.7442623,7.04590164 C1.79016393,7.04590164 1.85901639,7.04590164 1.90491803,7.04590164 L3.53442623,12.7147541 C3.53442623,12.7377049 3.55737705,12.7606557 3.58032787,12.8065574 C3.35081967,13.0590164 3.19016393,13.357377 3.19016393,13.7245902 C3.19016393,14.504918 3.87868852,15.1245902 4.72786885,15.1245902 L16.2491803,15.1245902 C17.0983607,15.1245902 17.7868852,14.504918 17.7868852,13.7245902 C17.7868852,13.3803279 17.6491803,13.0590164 17.3967213,12.8065574 C17.4196721,12.7836066 17.4196721,12.7606557 17.442623,12.7147541 L19.0721311,7.04590164 C19.1180328,7.04590164 19.1868852,7.04590164 19.2327869,7.04590164 C20.1967213,7.04590164 20.9770492,6.26557377 20.9770492,5.30163934 C20.9770492,4.33770492 20.1967213,3.55737705 19.2327869,3.55737705 Z M9.01967213,2.08852459 C9.01967213,1.2852459 9.6852459,0.619672131 10.4885246,0.619672131 C11.2918033,0.619672131 11.957377,1.2852459 11.957377,2.08852459 C11.957377,2.89180328 11.2918033,3.55737705 10.4885246,3.55737705 C9.6852459,3.55737705 9.01967213,2.89180328 9.01967213,2.08852459 Z M1.72131148,6.40327869 C1.12459016,6.42622951 0.619672131,5.92131148 0.619672131,5.30163934 C0.619672131,4.68196721 1.12459016,4.2 1.72131148,4.2 C2.34098361,4.2 2.82295082,4.70491803 2.82295082,5.30163934 C2.82295082,5.92131148 2.31803279,6.40327869 1.72131148,6.40327869 Z M16.2491803,14.4819672 L4.72786885,14.4819672 C4.22295082,14.4819672 3.80983607,14.1377049 3.80983607,13.7245902 C3.80983607,13.3114754 4.22295082,12.9672131 4.72786885,12.9672131 L16.2491803,12.9672131 C16.7540984,12.9672131 17.1672131,13.3114754 17.1672131,13.7245902 C17.1672131,14.1377049 16.7540984,14.4819672 16.2491803,14.4819672 Z M16.9147541,12.3016393 L16.2721311,12.3016393 L4.72786885,12.3016393 L4.06229508,12.3016393 L2.50163934,6.86229508 C2.73114754,6.74754098 2.9147541,6.58688525 3.07540984,6.40327869 L6.81639344,8.42295082 C6.86229508,8.44590164 6.90819672,8.46885246 6.97704918,8.46885246 C7.09180328,8.46885246 7.18360656,8.42295082 7.25245902,8.30819672 L9.73114754,4.03934426 C9.96065574,4.13114754 10.2360656,4.17704918 10.4885246,4.17704918 C10.7639344,4.17704918 11.0163934,4.13114754 11.2459016,4.03934426 L13.7245902,8.30819672 C13.7934426,8.4 13.8852459,8.46885246 14,8.46885246 C14.0459016,8.46885246 14.0918033,8.44590164 14.1606557,8.42295082 L17.8786885,6.40327869 C18.0393443,6.58688525 18.2229508,6.74754098 18.452459,6.86229508 L16.9147541,12.3016393 Z M19.2327869,6.42622951 C18.6131148,6.42622951 18.1311475,5.92131148 18.1311475,5.32459016 C18.1311475,4.70491803 18.6360656,4.22295082 19.2327869,4.22295082 C19.852459,4.22295082 20.3344262,4.72786885 20.3344262,5.32459016 C20.357377,5.92131148 19.852459,6.42622951 19.2327869,6.42622951 Z" id="Shape"></path>
</svg>
