<?xml version="1.0" encoding="UTF-8"?>
<svg width="22px" height="21px" viewBox="0 0 22 21" version="1.1" xmlns="http://www.w3.org/2000/svg" xmlns:xlink="http://www.w3.org/1999/xlink">
    <!-- Generator: Sketch 51.3 (57544) - http://www.bohemiancoding.com/sketch -->
    <title>reports</title>
    <desc>Created with Sketch.</desc>
    <defs></defs>
                    <path d="M18.6296094,3.19238281 L16.0050391,3.19238281 L16.0050391,3.18484375 C16.0050391,2.23519531 16.0050391,1.41503906 15.6293359,0.844257812 C15.2398437,0.2525 14.5315234,0 13.2608984,0 L2.22667969,0 C0.998867188,0 0,0.99890625 0,2.22667969 L0,16.9920703 C0,18.2198437 0.998867188,19.21875 2.22667969,19.21875 L15.6144531,19.21875 C18.4015234,19.21875 20,17.7940625 20,15.31 L20,4.56039062 C20,3.80605469 19.3852734,3.19238281 18.6296094,3.19238281 Z M15.2238281,18.4375 L2.22667969,18.4375 C1.4296875,18.4375 0.78125,17.7890625 0.78125,16.9920703 L0.78125,2.22667969 C0.78125,1.42964844 1.4296875,0.78125 2.22667969,0.78125 L13.2609375,0.78125 C14.4944141,0.78125 14.8258984,1.04445312 14.9767969,1.27375 C15.2071875,1.62375 15.2238281,2.22921875 15.2238281,3.18480469 L15.2238281,18.4375 Z M19.21875,15.31 C19.21875,17.6926953 17.5533984,18.3400781 16.0050391,18.4268359 L16.0050391,3.97363281 L18.6296094,3.97363281 C18.9544531,3.97363281 19.21875,4.236875 19.21875,4.56039062 L19.21875,15.31 Z" id="Shape"></path>
                    <path d="M12.6158594,10.5874219 L2.47832031,10.5873828 C2.26261719,10.5873828 2.08769531,10.7623047 2.08769531,10.9780078 C2.08769531,11.19375 2.26261719,11.3686328 2.47832031,11.3686328 L12.6158594,11.3686719 C12.8316016,11.3686719 13.0064844,11.1937891 13.0064844,10.9780469 C13.0064844,10.7623047 12.8315625,10.5874219 12.6158594,10.5874219 Z" id="Shape"></path>
                    <path d="M12.6158594,12.9068359 L2.51160156,12.9067969 C2.29589844,12.9067969 2.12097656,13.0817188 2.12097656,13.2974219 C2.12097656,13.5131641 2.29585938,13.6880469 2.51160156,13.6880469 L12.6158594,13.6880859 C12.8316016,13.6880859 13.0064844,13.5131641 13.0064844,13.2974609 C13.0064844,13.0817187 12.8315625,12.9068359 12.6158594,12.9068359 Z" id="Shape"></path>
                    <path d="M12.6158594,5.58742187 L2.47832031,5.58738281 C2.26261719,5.58738281 2.08769531,5.76230469 2.08769531,5.97800781 C2.08769531,6.19375 2.26261719,6.36863281 2.47832031,6.36863281 L12.6158594,6.36867187 C12.8316016,6.36867187 13.0064844,6.19378906 13.0064844,5.97804687 C13.0064844,5.76230469 12.8315625,5.58742187 12.6158594,5.58742187 Z" id="Shape-Copy-2"></path>
                    <path d="M12.6158594,7.90683594 L2.51160156,7.90679688 C2.29589844,7.90679688 2.12097656,8.08171875 2.12097656,8.29742188 C2.12097656,8.51316406 2.29585938,8.68804688 2.51160156,8.68804688 L12.6158594,8.68808594 C12.8316016,8.68808594 13.0064844,8.51316406 13.0064844,8.29746094 C13.0064844,8.08171875 12.8315625,7.90683594 12.6158594,7.90683594 Z" id="Shape-Copy"></path>
                    <path d="M12.6158594,2.90683594 L2.51160156,2.90679687 C2.29589844,2.90679687 2.12097656,3.08171875 2.12097656,3.29742187 C2.12097656,3.51316406 2.29585938,3.68804687 2.51160156,3.68804687 L12.6158594,3.68808594 C12.8316016,3.68808594 13.0064844,3.51316406 13.0064844,3.29746094 C13.0064844,3.08171875 12.8315625,2.90683594 12.6158594,2.90683594 Z" id="Shape-Copy-3"></path>
                    <path d="M12.6158594,15.4060156 L12.5946484,15.4060156 C12.3789062,15.4060156 12.2040234,15.5808984 12.2040234,15.7966406 C12.2040234,16.0123828 12.3789062,16.1872656 12.5946484,16.1872656 L12.6158594,16.1872656 C12.8316016,16.1872656 13.0064844,16.0123828 13.0064844,15.7966406 C13.0064844,15.5808984 12.8315625,15.4060156 12.6158594,15.4060156 Z" id="Shape"></path>
                    <path d="M11.3738672,15.4060156 L2.47828125,15.4059766 C2.26257813,15.4059766 2.08765625,15.5808594 2.08765625,15.7966016 C2.08765625,16.0123437 2.26257813,16.1872266 2.47828125,16.1872266 L11.3738672,16.1872656 C11.5895703,16.1872656 11.7644922,16.0123437 11.7644922,15.7966406 C11.7644922,15.5808984 11.5895703,15.4060156 11.3738672,15.4060156 Z" id="Shape"></path>
</svg>
